# xmcd
#
# Track frame offsets:
#	150
#	15867
#	32215
#	44842
#	60925
#	76415
#	92087
#	108180
#	120795
#	136892
#
# Disc length: 2033 seconds
#
# Revision: 1
# Processed by: cddbd v1.5.1PL2 Copyright (c) Steve Scherf et al.
# Submitted via: audiograbber 1.83.01
#
DISCID=6e07ef0a
DTITLE=Martina McBride - BC832
DYEAR=1900
DGENRE=Karaoke
TTITLE0=Heart Trouble
TTITLE1=Independence Day
TTITLE2=My Baby Loves Me
TTITLE3=She Ain't Seen Nothin' Yet
TTITLE4=Strangers
TTITLE5=Heart Trouble (vocal version)
TTITLE6=Independence Day (vocal version)
TTITLE7=My Baby Loves Me (vocal version)
TTITLE8=She Ain't Seen Nothin' Yet (vocal version)
TTITLE9=Strangers (vocal version)
EXTD=
EXTT0=
EXTT1=
EXTT2=
EXTT3=
EXTT4=
EXTT5=
EXTT6=
EXTT7=
EXTT8=
EXTT9=
PLAYORDER=
